<svg width="188" height="188" viewBox="0 0 188 188" fill="none" xmlns="http://www.w3.org/2000/svg">
<g clip-path="url(#clip0)">
<path d="M97.6975 187.926C45.8235 189.968 2.11605 149.571 0.0741226 97.6975V97.6972C-1.96781 45.8235 38.4287 2.11605 90.3024 0.0741226H90.3027C142.176 -1.96781 185.884 38.4287 187.926 90.3024V90.3027C189.968 142.176 149.571 185.884 97.6975 187.926Z" fill="#D2E4FF"/>
<path d="M187.925 90.3035C186.599 56.632 167.715 27.8019 140.441 12.2695C153.767 27.7869 162.149 47.7406 163.016 69.7663C165.058 121.64 124.662 165.347 72.7879 167.389C54.5857 168.106 37.3925 163.591 22.6484 155.195C40.7075 176.223 67.8489 189.101 97.6968 187.926C149.57 185.885 189.967 142.177 187.925 90.3035Z" fill="#B6D7FF"/>
<path d="M93.8706 88.4639C105.941 88.4639 115.726 78.6791 115.726 66.6089C115.726 54.5387 105.941 44.7539 93.8706 44.7539C81.8004 44.7539 72.0156 54.5387 72.0156 66.6089C72.0156 78.6791 81.8004 88.4639 93.8706 88.4639Z" fill="#175BE7"/>
<path d="M138.174 142.836H47.5919C45.9752 142.836 44.7969 141.576 44.7969 139.96V125.867C44.7969 111.45 56.3515 99.875 70.7684 99.875H114.998C129.415 99.875 141 111.45 141 125.867V139.96C141 141.576 139.792 142.836 138.174 142.836Z" fill="#6CA5FF"/>
<path d="M68.2969 126.68H62.0547V142.836H68.2969V126.68Z" fill="#175BE7"/>
<path d="M123.375 126.68H117.5V142.836H123.375V126.68Z" fill="#175BE7"/>
</g>
<defs>
<clipPath id="clip0">
<rect width="188" height="188" fill="white"/>
</clipPath>
</defs>
</svg>
